<svg width="2660" height="2000" viewBox="0 0 2660 2000" fill="none" xmlns="http://www.w3.org/2000/svg">
<path d="M660.92 1315.68L644.539 1306.39C640.011 1313.6 634.501 1320.07 629.151 1324.95C624.686 1329.02 617.829 1328.92 613.478 1324.73L612.954 1324.22C608.16 1319.6 608.271 1311.86 613.253 1307.44C618.328 1302.94 623.254 1297.31 627.081 1290.56C632.653 1280.74 632.674 1271.86 625.777 1267.95C619.226 1264.23 611.958 1267.41 600.411 1277.72C583.742 1292.65 567.983 1300.35 551.258 1290.86C536.085 1282.26 530.249 1264.82 537.091 1244.32L520.711 1235.03L530.293 1218.13L545.466 1226.74C549.302 1220.63 553.064 1215.95 556.658 1212.29C561.05 1207.82 568.239 1207.76 572.751 1212.11C577.416 1216.61 577.438 1224.09 572.777 1228.59C569.284 1231.96 565.491 1236.43 562.04 1242.52C555.684 1253.73 558.459 1260.08 563.287 1262.82C568.977 1266.05 576.02 1262.07 589.849 1250.54C608.726 1234.13 622.903 1231.23 638.42 1240.03C653.767 1248.73 660.711 1267.03 652.914 1288.81L670.502 1298.78L660.92 1315.68Z" fill="#FFCE88"/>
<path d="M1448.83 1578.62C1490.13 1523.03 1523.31 1522.54 1523.31 1522.54C1523.31 1522.54 1538.36 1424.87 1526.35 1383.33C1514.34 1341.78 1460.02 1378.21 1460.02 1378.21C1460.02 1378.21 1532.04 1237.05 1502.5 1221.19C1447.48 1191.66 1360.81 1341.39 1360.81 1341.39C1360.81 1341.39 1381.11 1275.48 1342.21 1275.73C1283.53 1276.1 1278.45 1427.21 1278.45 1427.21C1278.45 1427.21 1266.89 1397.44 1230.68 1414.5C1191.69 1432.87 1181.13 1543.51 1178.91 1629.01H1384.46C1413.87 1611 1437.89 1593.34 1448.83 1578.62Z" fill="#6DC77A"/>
<path d="M1368 1329.35C1368 1329.35 1370.42 1254.25 1331.51 1254.5C1272.83 1254.86 1278.45 1427.21 1278.45 1427.21C1278.45 1427.21 1253.94 1378.45 1217.74 1395.51C1178.01 1414.23 1173.29 1536.51 1174.85 1629.01H1243.13L1502.5 1221.19C1447.48 1191.65 1368 1329.35 1368 1329.35Z" fill="#599962"/>
<path d="M1687.5 1624.12C1687.5 1624.12 1874.81 1645.69 1920.19 1629.8C1965.56 1613.91 1935.51 1588.5 1935.51 1588.5C1935.51 1588.5 2031.47 1576.24 2040.73 1547.68C2049.98 1519.12 2004.58 1518.94 2004.58 1518.94C2004.58 1518.94 2100.9 1465.8 2090.09 1445.19C2069.94 1406.81 1961.87 1459.18 1961.87 1459.18C1961.87 1459.18 1999.18 1429.18 1976.72 1414.19C1942.84 1391.57 1881.13 1476.48 1881.13 1476.48C1881.13 1476.48 1886.06 1454.86 1858.62 1450.58C1809.37 1442.91 1687.5 1624.12 1687.5 1624.12Z" fill="#6DC77A"/>
<path d="M1858.56 1434.63C1886.01 1438.91 1881.13 1476.48 1881.13 1476.48C1881.13 1476.48 1944.95 1375.21 1978.83 1397.82C2001.29 1412.82 1970.69 1455.05 1970.69 1455.05C1970.69 1455.05 2069.94 1406.81 2090.08 1445.19L1705.44 1612.12C1719.56 1590.89 1812.56 1427.47 1858.56 1434.63Z" fill="#599962"/>
<path d="M1686.34 1626.85C1686.34 1626.85 1856.79 1508.26 1881.31 1456.12C1905.83 1403.98 1858.87 1408.33 1858.87 1408.33C1858.87 1408.33 1928.99 1316 1912.35 1284.1C1895.71 1252.2 1857.42 1290.86 1857.42 1290.86C1857.42 1290.86 1892.88 1163.88 1866.18 1155.82C1816.45 1140.8 1767.8 1301.6 1767.8 1301.6C1767.8 1301.6 1749.23 1212.64 1717.54 1219.24C1669.75 1229.21 1717.43 1360.73 1717.43 1360.73C1717.43 1360.73 1703.34 1317.89 1676.63 1337.77C1628.7 1373.42 1686.34 1626.85 1686.34 1626.85Z" fill="#6DC77A"/>
<path d="M1630 1339.82C1660.1 1325.58 1666.14 1295.63 1666.14 1295.63C1666.14 1295.63 1666.34 1221.26 1714.13 1211.29C1745.82 1204.68 1768 1264.43 1768 1264.43C1768 1264.43 1816.45 1140.8 1866.18 1155.82L1685.83 1624.86C1679.54 1594.96 1594.15 1356.77 1630 1339.82Z" fill="#599962"/>
<path d="M1633.79 1627.22H1290.08C1279.12 1627.22 1270.23 1618.33 1270.23 1607.37C1270.23 1596.41 1279.12 1587.53 1290.08 1587.53H1633.79C1644.75 1587.53 1653.64 1596.41 1653.64 1607.37C1653.64 1618.33 1644.75 1627.22 1633.79 1627.22Z" fill="#D3D3D3"/>
<path d="M1693.91 1588.7H1350.2C1339.23 1588.7 1330.35 1579.82 1330.35 1568.86C1330.35 1557.9 1339.23 1549.01 1350.2 1549.01H1693.91C1704.87 1549.01 1713.75 1557.9 1713.75 1568.86C1713.75 1579.82 1704.87 1588.7 1693.91 1588.7Z" fill="#AAAAAA"/>
<path d="M1645.81 1552.22H1302.1C1291.14 1552.22 1282.26 1543.33 1282.26 1532.37C1282.26 1521.41 1291.14 1512.53 1302.1 1512.53H1645.81C1656.77 1512.53 1665.66 1521.41 1665.66 1532.37C1665.66 1543.33 1656.77 1552.22 1645.81 1552.22Z" fill="#D3D3D3"/>
<path d="M1605.73 1512.69H1262.03C1251.06 1512.69 1242.18 1503.81 1242.18 1492.85C1242.18 1481.88 1251.06 1473 1262.03 1473H1605.73C1616.7 1473 1625.58 1481.88 1625.58 1492.85C1625.58 1503.81 1616.7 1512.69 1605.73 1512.69Z" fill="#AAAAAA"/>
<path d="M1849.2 1466.91C1849.2 1561.82 1772.26 1638.76 1677.35 1638.76C1582.44 1638.76 1505.5 1561.82 1505.5 1466.91C1505.5 1372 1582.44 1295.06 1677.35 1295.06C1772.26 1295.06 1849.2 1372 1849.2 1466.91Z" fill="#FFCE88"/>
<path d="M1821.56 1466.91C1821.56 1546.55 1757 1611.12 1677.35 1611.12C1597.71 1611.12 1533.15 1546.55 1533.15 1466.91C1533.15 1387.27 1597.71 1322.71 1677.35 1322.71C1757 1322.71 1821.56 1387.27 1821.56 1466.91Z" fill="#FFBF66"/>
<path d="M1632.71 1559.5L1640.91 1536.87C1630.85 1532.71 1621.52 1527.14 1614.23 1521.44C1608.15 1516.68 1606.8 1508.02 1611.16 1501.64L1611.68 1500.87C1616.48 1493.84 1626.27 1492.32 1632.9 1497.66C1639.66 1503.1 1647.81 1508.1 1657.13 1511.48C1670.71 1516.4 1681.9 1514.53 1685.36 1505C1688.64 1495.95 1683.09 1487.47 1667.62 1475.12C1645.24 1457.3 1632.16 1439.08 1640.54 1415.97C1648.14 1395.01 1668.87 1383.93 1696.18 1388.17L1704.38 1365.53L1727.73 1374L1720.13 1394.96C1728.65 1398.49 1735.35 1402.23 1740.73 1405.98C1747.31 1410.56 1748.92 1419.61 1744.4 1426.23C1739.73 1433.07 1730.31 1434.69 1723.64 1429.78C1718.64 1426.1 1712.19 1422.28 1703.78 1419.23C1688.3 1413.61 1680.88 1418.47 1678.46 1425.14C1675.61 1433 1682.13 1441.03 1699.62 1455.99C1724.34 1476.28 1731.03 1493.53 1723.25 1514.97C1715.56 1536.17 1693.99 1548.84 1664.87 1543.67L1656.06 1567.97L1632.71 1559.5Z" fill="white"/>
<path d="M1057.59 1620.24C1057.59 1620.24 790.536 1488.56 744.61 1419.89C698.684 1351.21 766.195 1347.32 766.195 1347.32C766.195 1347.32 647.023 1231.42 663.789 1182.62C680.556 1133.83 743.122 1180.45 743.122 1180.45C743.122 1180.45 665.662 1008 701.793 990.856C769.091 958.917 863.499 1142.45 863.499 1142.45C863.499 1142.45 843.21 1062.72 889.553 1065.31C959.44 1069.22 956.553 1249.57 956.553 1249.57C956.553 1249.57 964.446 1180.42 1006.57 1202.88C1082.15 1243.18 1057.59 1620.24 1057.59 1620.24Z" fill="#599962"/>
<path d="M1021.78 1174.98C988.882 1156.73 956.122 1210.08 956.122 1210.08C956.122 1210.08 959.44 1069.22 889.552 1065.31C843.21 1062.72 863.499 1142.45 863.499 1142.45C863.499 1142.45 769.09 958.918 701.793 990.857L1057.89 1617.31C1060.41 1573.56 1086.94 1211.14 1021.78 1174.98Z" fill="#6DC77A"/>
<path d="M1050.69 1621.87C1050.69 1621.87 832.274 1648.99 775.722 1624.82C719.171 1600.65 759.699 1570.79 759.699 1570.79C759.699 1570.79 638.27 1546.92 628.901 1509.67C619.533 1472.43 677.502 1476.08 677.502 1476.08C677.502 1476.08 559.114 1400 574.682 1374.62C603.68 1327.35 737.142 1403.46 737.142 1403.46C737.142 1403.46 692.09 1361.98 722.048 1344.76C767.228 1318.8 838.711 1432.47 838.711 1432.47C838.711 1432.47 834.27 1404.45 869.671 1401.35C933.188 1395.77 1050.69 1621.87 1050.69 1621.87Z" fill="#599962"/>
<path d="M871.104 1380.99C835.703 1384.09 838.71 1432.47 838.71 1432.47C838.71 1432.47 765.934 1297.73 720.754 1323.69C690.796 1340.91 726.241 1397.45 726.241 1397.45C726.241 1397.45 603.679 1327.35 574.681 1374.62L1051.35 1620.66C1035.14 1592.35 930.435 1375.78 871.104 1380.99Z" fill="#6DC77A"/>
<path d="M596.274 1633.09C596.274 1636.48 599.023 1639.23 602.414 1639.23H2133.15C2136.54 1639.23 2139.29 1636.48 2139.29 1633.09C2139.29 1629.7 2136.54 1626.95 2133.15 1626.95H602.415C599.023 1626.95 596.274 1629.7 596.274 1633.09Z" fill="#599962"/>
<path d="M1667.67 565.156L1659.89 584.566L1627.27 575.487L1612.39 602.462L1586.87 599.658L1585.45 612.575L1619.58 616.326L1633.69 590.762L1667.61 600.207L1679.33 570.999L1667.67 565.156Z" fill="#6DC77A"/>
<path d="M1783.67 1085.1L1791.69 1065.21C1782.86 1061.19 1774.73 1055.94 1768.42 1050.64C1763.15 1046.21 1762.23 1038.45 1766.3 1032.91L1766.79 1032.24C1771.28 1026.13 1780.05 1025.09 1785.78 1030.05C1791.63 1035.1 1798.73 1039.81 1806.92 1043.11C1818.86 1047.92 1828.88 1046.61 1832.26 1038.23C1835.46 1030.28 1830.79 1022.55 1817.4 1011.07C1798.03 994.502 1786.97 977.872 1795.15 957.56C1802.58 939.133 1821.38 929.916 1845.56 934.547L1853.57 914.653L1874.1 922.924L1866.67 941.351C1874.15 944.76 1879.99 948.301 1884.67 951.808C1890.38 956.092 1891.53 964.199 1887.3 969.948C1882.92 975.893 1874.48 977.045 1868.7 972.463C1864.36 969.027 1858.75 965.419 1851.35 962.441C1837.74 956.957 1830.99 961.048 1828.62 966.911C1825.84 973.821 1831.39 981.171 1846.49 995.045C1867.87 1013.88 1873.28 1029.45 1865.68 1048.29C1858.17 1066.93 1838.57 1077.53 1812.8 1072.01L1804.19 1093.37L1783.67 1085.1Z" fill="#D3D3D3"/>
<path d="M1343.2 1626.99H939.488C923.404 1626.99 910.365 1613.95 910.365 1597.87C910.365 1581.78 923.404 1568.75 939.488 1568.75H1343.2C1359.29 1568.75 1372.33 1581.78 1372.33 1597.87C1372.33 1613.95 1359.29 1626.99 1343.2 1626.99Z" fill="#FFCE88"/>
<path d="M1403.88 1569.34H1023.83C1007.74 1569.34 994.704 1556.3 994.704 1540.22C994.704 1524.13 1007.74 1511.09 1023.83 1511.09H1403.88C1419.97 1511.09 1433.01 1524.13 1433.01 1540.22C1433.01 1556.3 1419.97 1569.34 1403.88 1569.34Z" fill="#FFBF66"/>
<path d="M1349.74 1511.07H986.188C970.47 1511.07 957.728 1498.33 957.728 1482.61V1481.27C957.728 1465.55 970.47 1452.81 986.188 1452.81H1349.74C1365.46 1452.81 1378.2 1465.55 1378.2 1481.27V1482.61C1378.2 1498.33 1365.46 1511.07 1349.74 1511.07Z" fill="#FFCE88"/>
<path d="M1349.38 1452.97H984.125C968.677 1452.97 956.155 1440.44 956.155 1425V1422.69C956.155 1407.24 968.677 1394.72 984.125 1394.72H1349.38C1364.83 1394.72 1377.35 1407.24 1377.35 1422.69V1425C1377.35 1440.44 1364.83 1452.97 1349.38 1452.97Z" fill="#FFBF66"/>
<path d="M1361.41 1398.15H992.807C976.722 1398.15 963.684 1385.11 963.684 1369.02C963.684 1352.94 976.722 1339.9 992.807 1339.9H1361.41C1377.49 1339.9 1390.53 1352.94 1390.53 1369.02C1390.53 1385.11 1377.49 1398.15 1361.41 1398.15Z" fill="#FFCE88"/>
<path d="M1345.5 1340.64H976.898C960.814 1340.64 947.775 1327.6 947.775 1311.51C947.775 1295.43 960.814 1282.39 976.898 1282.39H1345.5C1361.58 1282.39 1374.62 1295.43 1374.62 1311.51C1374.62 1327.6 1361.58 1340.64 1345.5 1340.64Z" fill="#FFBF66"/>
<path d="M1363.97 1228.11H1010.9C995.133 1228.11 982.351 1215.33 982.351 1199.57V1198.42C982.351 1182.65 995.133 1169.87 1010.9 1169.87H1363.97C1379.73 1169.87 1392.52 1182.65 1392.52 1198.42V1199.57C1392.52 1215.33 1379.73 1228.11 1363.97 1228.11Z" fill="#FFBF66"/>
<path d="M1395.6 1284.12H1056.41C1040.93 1284.12 1028.39 1271.57 1028.39 1256.09V1253.89C1028.39 1238.42 1040.93 1225.87 1056.41 1225.87H1395.6C1411.08 1225.87 1423.62 1238.42 1423.62 1253.89V1256.09C1423.62 1271.57 1411.08 1284.12 1395.6 1284.12Z" fill="#FFCE88"/>
<path d="M1003.1 1338.66C1072.52 1402.68 1076.9 1510.86 1012.87 1580.28C948.847 1649.71 840.665 1654.08 771.244 1590.06C701.822 1526.03 697.447 1417.85 761.472 1348.43C825.498 1279 933.679 1274.63 1003.1 1338.66Z" fill="#FFCE88"/>
<path d="M984.452 1358.88C1042.71 1412.6 1046.38 1503.38 992.651 1561.64C938.925 1619.89 848.147 1623.56 789.892 1569.83C731.638 1516.11 727.967 1425.33 781.693 1367.08C835.419 1308.82 926.197 1305.15 984.452 1358.88Z" fill="#FFBF66"/>
<path d="M981.278 1509.17C984.578 1513.5 984.348 1519.56 980.727 1523.64C973.622 1531.62 962.007 1541.27 947.414 1548.44C926.069 1558.92 901.55 1562.12 878.403 1554.22C863.939 1549.28 850.154 1539.19 839.779 1525.42L827.167 1531.61C822.88 1533.71 817.698 1531.95 815.594 1527.66L815.434 1527.33C813.33 1523.05 815.099 1517.86 819.385 1515.76L829.736 1510.68C827.664 1507.28 826.23 1505.18 825.277 1503.24C823.69 1500 822.107 1495.96 820.69 1491.44L810.017 1496.68C805.73 1498.78 800.549 1497.01 798.445 1492.73C796.34 1488.44 798.109 1483.26 802.396 1481.15L815.334 1474.8C811.587 1458.18 812.194 1441.42 817.131 1426.96C825.529 1402.36 844.034 1383.64 866.351 1372.69C879.361 1366.3 890.321 1363.72 899.298 1362.75C905.539 1362.07 911.196 1366.45 912.099 1372.66L912.127 1372.86C913.063 1379.3 908.541 1385.21 902.094 1386.1C894.763 1387.11 886.211 1389.43 876.508 1394.19C862.277 1401.18 850.269 1412.69 844.349 1429.25C841.054 1438.89 840.166 1450.17 843.472 1460.99L916.247 1425.26C920.533 1423.15 925.715 1424.92 927.819 1429.21C929.924 1433.5 928.154 1438.68 923.868 1440.78L847.86 1478.1C849.281 1481.82 850.705 1485.53 851.818 1487.8C853.246 1490.71 854.675 1493.62 856.904 1497.34L933.073 1459.94C937.45 1457.8 942.74 1459.6 944.889 1463.98C947.038 1468.36 945.232 1473.65 940.855 1475.79L867.92 1511.6C874.789 1519.87 883.285 1525.73 891.967 1528.7C909.167 1534.3 924.328 1532.47 940.499 1524.54C950.358 1519.7 958.355 1513.6 964.323 1507.86C969.234 1503.15 977.153 1503.75 981.278 1509.17Z" fill="white"/>
<path d="M981.26 1005.48C983.531 1009.16 982.882 1013.93 979.709 1016.86C973.485 1022.62 963.572 1029.34 951.499 1033.88C933.839 1040.5 914.236 1041.14 896.571 1033.12C885.531 1028.11 875.427 1019.08 868.298 1007.41L857.864 1011.32C854.317 1012.65 850.363 1010.86 849.032 1007.31L848.931 1007.04C847.6 1003.49 849.396 999.541 852.942 998.209L861.505 994.995C860.131 992.152 859.161 990.38 858.559 988.774C857.555 986.099 856.616 982.788 855.847 979.107L847.017 982.421C843.47 983.753 839.516 981.956 838.185 978.41C836.854 974.863 838.65 970.909 842.197 969.578L852.9 965.561C851.222 952.148 852.992 938.967 858.006 927.927C866.531 909.158 882.583 895.807 901.046 888.878C911.809 884.838 920.661 883.644 927.823 883.568C932.802 883.515 936.931 887.41 937.164 892.384L937.172 892.541C937.414 897.697 933.388 902.016 928.23 902.221C922.364 902.455 915.435 903.626 907.407 906.638C895.634 911.057 885.266 919.222 879.317 931.835C875.972 939.195 874.403 948.027 876.178 956.824L936.385 934.227C939.932 932.896 943.886 934.691 945.217 938.238C946.548 941.784 944.752 945.739 941.206 947.07L878.323 970.671C879.159 973.715 879.997 976.759 880.7 978.633C881.604 981.041 882.508 983.449 883.98 986.56L946.996 962.908C950.617 961.549 954.655 963.382 956.014 967.003C957.372 970.625 955.539 974.662 951.918 976.021L891.578 998.668C896.364 1005.72 902.62 1011.01 909.245 1014.02C922.393 1019.76 934.502 1019.49 947.881 1014.47C956.036 1011.41 962.821 1007.21 967.974 1003.15C972.216 999.8 978.42 1000.89 981.26 1005.48Z" fill="#D3D3D3"/>
<path d="M1540.05 804.254L1559.26 794.529L1578.16 804.842C1580.32 806.016 1582.88 804.212 1582.51 801.789L1579.19 780.513L1594.84 765.723C1596.62 764.038 1595.7 761.041 1593.28 760.651L1572.02 757.227L1562.79 737.773C1561.74 735.557 1558.6 735.509 1557.48 737.691L1547.66 756.851L1526.3 759.618C1523.87 759.933 1522.86 762.901 1524.59 764.64L1539.77 779.905L1535.8 801.069C1535.35 803.48 1537.86 805.361 1540.05 804.254Z" fill="#FFBF66"/>
<path d="M1154.48 413.787L1134.62 415.802L1127.85 384.215L1098.46 383.581L1089.53 360.771L1077.98 365.292L1089.93 395.8L1117.78 396.401L1124.82 429.261L1154.7 426.228L1154.48 413.787Z" fill="#FFBF66"/>
<path d="M1562.43 887.128L1583.67 894.134C1583.67 894.134 1617.35 883.221 1620.67 876.357C1623.99 869.494 1624.92 852.838 1629.71 852.384C1634.5 851.93 1643.77 853.488 1645.97 864.887C1647.57 873.161 1635.45 897.075 1637.35 899.62C1638.53 901.213 1650.63 905.589 1659.51 908.643C1665.36 910.65 1669.57 915.793 1670.47 921.997L1670.47 922.015C1671.08 926.208 1668.7 930.293 1664.78 931.809L1658.67 934.169L1660.62 940.479C1662.07 945.176 1659.5 950.225 1654.86 951.78L1650.13 953.365L1651.64 957.209C1653.59 962.158 1650.84 967.774 1645.76 969.253L1641.63 970.453L1641.8 971.557C1642.51 976.15 1639.63 980.57 1635.17 981.738L1631.07 982.814L1574.5 964.144C1569.2 962.395 1564.32 959.562 1560.16 955.817L1541.37 945.902C1539.35 944.837 1538.43 942.424 1539.19 940.229L1556.6 890.073C1557.45 887.651 1560.04 886.339 1562.43 887.128Z" fill="#FFCE88"/>
<path d="M881.409 818.674C881.135 817.892 874.482 806.515 865.893 794.159C825.947 736.609 766.713 681.141 697.248 683.224L697.199 682.801C728.605 679.356 759.377 687.72 786.391 702.627C830.955 726.651 874.377 772.43 898.133 807.62L881.409 818.674Z" fill="#FFBF66"/>
<path d="M1338.23 746.866C1338.23 746.866 1340.27 742.748 1340.15 733.236C1339.99 721.472 1337.64 703.711 1337.17 702.141C1336.31 699.302 1374.37 687.375 1374.37 687.375C1374.37 687.375 1435.42 684.251 1444.51 677.436C1453.59 670.621 1461.24 667.815 1457 674.881C1449.33 687.659 1431.44 706.401 1427.47 708.957C1423.49 711.512 1376.07 723.439 1375.22 723.439C1374.37 723.439 1374.65 753.255 1374.65 753.255L1338.23 746.866Z" fill="#F7A491"/>
<path d="M1377.85 734.158C1377.85 734.158 1338.31 727.439 1337.59 731.389C1321.62 818.851 1318.91 847.76 1317.15 848.667C1311.13 851.761 1225.09 776.25 1210.87 771.308C1204.07 768.944 1196.67 769.338 1189.58 769.547C1172.66 770.046 1178.37 769.641 1169.45 770.08L1169.46 770.099C1168.98 770.131 1168.7 770.151 1168.7 770.151L1168.8 786.059C1187.85 803.205 1231.48 1062.9 1235.15 1062.73C1239.26 1062.54 1325.48 1084.24 1323.96 1076.98C1323.72 1075.79 1265.5 1028.16 1249 959.413C1243.45 936.335 1240.72 911.484 1237.71 889.735C1256.87 899.342 1331.7 936.166 1343.56 931.301C1380.45 916.166 1377.85 734.158 1377.85 734.158Z" fill="#D3D3D3"/>
<path d="M1526.34 1195.27C1526.34 1195.27 1606.56 1258.11 1609.24 1269.25C1613.09 1285.3 1686.55 1264.2 1668.84 1260.94C1664.76 1260.19 1651.72 1256.87 1650.65 1256.3C1644.91 1253.24 1573.53 1167.22 1573.53 1167.22L1526.34 1195.27Z" fill="#F7A491"/>
<path d="M1703.29 1260.94L1652.07 1256.77C1652.07 1256.77 1637.43 1268.88 1609.29 1269.45C1609.29 1269.45 1604.79 1282.3 1606.93 1297.33C1607.3 1299.92 1607.73 1307.75 1610.34 1307.58C1619.81 1306.93 1645.02 1300.66 1673.75 1294.92C1673.75 1294.92 1712.36 1286.74 1734.66 1273.4C1756.95 1260.06 1703.29 1260.94 1703.29 1260.94Z" fill="#1E0F00"/>
<path d="M1166.88 1037.64C1166.88 1037.64 1225.63 1047.51 1290.6 1032.31C1365.78 1014.72 1448.91 998.459 1473.27 1012.62C1492.88 1024.02 1615.31 1209.02 1615.31 1209.02L1568.03 1243.52L1433.22 1092.57C1433.22 1092.57 1261.23 1156.03 1222.6 1148.99C1134.62 1132.98 1133.38 1062.72 1166.88 1037.64Z" fill="#AEE0FF"/>
<path d="M1231.1 1000.31L1289.89 1070.16L1180.84 1103.38L1166.88 1037.64L1231.1 1000.31Z" fill="#AEE0FF"/>
<path d="M1350.56 1319.39C1350.56 1319.39 1346.99 1416.42 1344.77 1432.85C1342.57 1449.2 1385.95 1498.48 1380.41 1481.34C1379.13 1477.4 1375.84 1464.35 1375.84 1463.13C1375.81 1456.63 1391.93 1345.94 1391.93 1345.94L1350.56 1319.39Z" fill="#F7A491"/>
<path d="M1396.77 1511.65L1376.11 1464.6C1376.11 1464.6 1358.49 1457.48 1344.62 1432.99C1344.62 1432.99 1331.18 1435.14 1318.97 1444.16C1316.87 1445.71 1302.52 1456.21 1303.52 1458.63C1307.2 1467.54 1326.73 1486.62 1348.1 1507.47C1348.1 1507.47 1378.38 1531.9 1400.71 1545.18C1423.05 1558.46 1396.77 1511.65 1396.77 1511.65Z" fill="#1E0F00"/>
<path d="M1445.78 1128.09C1425.24 1100.7 1259.44 1074.68 1259.44 1074.68L1213.22 985.823L1110.99 1048.87C1110.99 1048.87 1121.21 1130.21 1128.88 1151.94C1139.1 1180.91 1207.8 1182.38 1249.76 1181.95C1288.37 1181.56 1358.89 1189.43 1358.89 1189.43L1335.04 1399.85C1335.04 1399.85 1381.92 1410.52 1395.1 1408.79C1396.59 1408.6 1471.34 1162.17 1445.78 1128.09Z" fill="#CCE9FF"/>
<path d="M1169.27 770.293L1111.59 773.454C1111.59 773.454 1110.27 773.919 1109.87 773.993C1105.17 774.863 1109.44 942.941 1113.63 1005.72C1117.82 1068.49 1126.32 1094.87 1126.32 1094.87C1126.32 1094.87 1204.54 1080.98 1228.55 1071.66C1238.51 1067.79 1262.62 1037.65 1262.62 1037.65C1262.62 1037.65 1237.99 1004.53 1225.58 950.732C1216.01 909.242 1204.21 835.693 1197.45 820.341C1181.94 785.084 1169.27 770.293 1169.27 770.293Z" fill="white"/>
<path d="M1113.24 722.59L1111.6 773.514C1111.6 773.514 1148.94 837.845 1168.1 828.881C1184.19 821.358 1169.91 772.423 1169.91 772.423C1169.91 772.423 1167.13 761.202 1163.26 748.312C1160.56 739.305 1158.32 729.548 1158.49 722.388C1158.89 704.985 1113.24 722.59 1113.24 722.59Z" fill="#F7A491"/>
<path d="M1157.84 606.444C1157.84 606.444 1176.87 635.125 1178.29 659.262C1179.71 683.399 1174.6 699.868 1174.6 699.868L1113.54 626.889L1157.84 606.444Z" fill="#1E0F00"/>
<path d="M1184.61 654.323C1185.47 662.775 1182.18 670.032 1177.27 670.533C1172.36 671.034 1167.68 664.59 1166.82 656.138C1165.96 647.686 1169.24 640.429 1174.16 639.927C1179.07 639.426 1183.75 645.871 1184.61 654.323Z" fill="#F48C7F"/>
<path d="M1093.79 638.582C1092.39 638.284 1092.53 708.542 1112.89 725.076C1133.25 741.61 1168.7 743.061 1179.05 726.407C1190.5 707.987 1179.61 633.955 1149.32 618.231C1119.03 602.508 1093.79 638.582 1093.79 638.582Z" fill="#F7A491"/>
<path d="M1088.62 595.015C1073.08 608.646 1065.55 618.603 1055.03 642.836C1042.1 672.634 1067.76 703.506 1089.28 715.774C1110.79 728.043 1112.62 743.103 1112.62 743.103L1113.47 733.732C1114.4 726.455 1112.19 722.302 1110.14 717.901C1108.3 713.986 1102.42 700.57 1100.13 697.029C1094.07 687.691 1092.88 685.669 1095.87 676.796C1098.17 669.964 1095.5 654.904 1099.06 643.643L1128.03 637.396C1128.03 637.396 1146.15 633.039 1155.3 622.48C1181.58 592.161 1129.62 558.353 1088.62 595.015Z" fill="#1E0F00"/>
<path d="M1102.76 684.485C1106.32 692.195 1105.58 700.127 1101.1 702.202C1096.62 704.276 1090.1 699.708 1086.53 691.998C1082.96 684.288 1083.7 676.356 1088.18 674.281C1092.66 672.207 1099.19 676.776 1102.76 684.485Z" fill="#F7A491"/>
<path d="M712.66 709.661L707.961 677.295L731.96 655.075C734.693 652.544 733.338 647.978 729.667 647.348L697.432 641.815L683.717 612.125C682.154 608.743 677.392 608.621 675.659 611.918L660.436 640.865L627.96 644.735C624.262 645.176 622.674 649.666 625.273 652.334L648.099 675.757L641.744 707.839C641.02 711.493 644.801 714.391 648.142 712.743L677.472 698.272L706.019 714.23C709.271 716.048 713.195 713.348 712.66 709.661Z" fill="#FFBF66"/>
<path d="M905.392 490.673C908.684 504.197 914.62 525.572 914.62 525.572C914.15 531.447 912.414 555.902 910.35 585.874L954.404 568.243C954.404 568.243 953.876 519.406 955.842 516.418C957.504 513.89 960.297 517.045 973.8 497.721C977.698 492.143 978.428 482.177 978.428 482.177C978.428 482.177 979.231 469.911 976.476 468.77C973.722 467.626 970.562 469.459 969.565 471.578C968.567 473.698 968.825 478.634 967.827 480.754C966.83 482.874 960.457 485.428 957.774 485.295C955.091 485.164 958.109 449.011 958.109 449.011C958.109 449.011 959.607 438.76 960.367 435.405C961.015 432.545 963.618 424.159 963.618 424.159C963.618 424.159 966.675 411.992 962.896 411.063C960.669 410.515 954.994 420.401 951.104 430.891C946.915 442.19 944.54 454.172 943.342 454.01C940.529 453.632 942.019 433.811 942.019 433.811C942.019 433.811 944.823 424.731 944.752 420.446C947.399 415.197 949.155 405.457 944.495 404.651C943.635 404.503 937.492 416.875 937.492 416.875C937.492 416.875 935.078 425.586 933.67 429.656C931.188 436.837 930.813 448.176 929.518 453.176C928.44 457.335 927.467 455.626 927.023 455.8C926.68 455.935 927.281 450.198 927.968 442.312C928.314 438.34 927.857 433.759 928.969 429.235C929.997 425.047 930.587 419.051 930.854 415.43C931.609 405.177 925.154 406.227 922.923 415.6C922.072 419.172 921.178 423.068 920.287 427.019C916.82 442.388 916.918 457.194 915.261 457.318C913.11 457.478 914.526 430.519 914.526 430.519C914.526 430.519 911.224 415.597 907.945 429.446C904.141 445.516 904.538 458.619 904.589 459.197C904.936 463.121 902.1 477.149 905.392 490.673Z" fill="#F8A492"/>
<path d="M1111.52 773.542C1111.52 773.542 1054.42 770.851 1039.66 764.177C1030.72 760.13 957.247 700.927 957.247 700.927L958.071 542.41L906.398 538.48C906.398 538.48 879.605 713.691 888.885 732.871C898.469 752.677 1006.02 834.213 1027.53 869.594C1039.92 889.978 1065.76 1167.19 1069.67 1169.69C1097.5 1184.17 1183.43 1198.64 1181.41 1189.85C1125.47 947.063 1111.52 773.542 1111.52 773.542Z" fill="#D3D3D3"/>
<path d="M1538.69 532.806C1538.69 627.716 1461.75 704.656 1366.84 704.656C1271.93 704.656 1194.99 627.716 1194.99 532.806C1194.99 437.896 1271.93 360.956 1366.84 360.956C1461.75 360.956 1538.69 437.896 1538.69 532.806Z" fill="#FFCE88"/>
<path d="M1511.05 532.806C1511.05 612.448 1446.49 677.011 1366.85 677.011C1287.2 677.011 1222.64 612.448 1222.64 532.806C1222.64 453.164 1287.2 388.601 1366.85 388.601C1446.49 388.601 1511.05 453.164 1511.05 532.806Z" fill="#FFBF66"/>
<path d="M1322.2 625.397L1330.4 602.764C1320.35 598.599 1311.01 593.037 1303.72 587.336C1297.64 582.579 1296.3 573.915 1300.65 567.534L1301.18 566.765C1305.97 559.735 1315.76 558.219 1322.39 563.554C1329.15 568.99 1337.3 573.995 1346.62 577.376C1360.2 582.299 1371.39 580.426 1374.84 570.897C1378.13 561.845 1372.58 553.363 1357.11 541.014C1334.73 523.196 1321.65 504.979 1330.03 481.87C1337.63 460.905 1358.36 449.822 1385.67 454.062L1393.87 431.43L1417.22 439.895L1409.62 460.859C1418.14 464.388 1424.84 468.129 1430.22 471.877C1436.8 476.458 1438.41 485.506 1433.89 492.124C1429.22 498.965 1419.8 500.59 1413.13 495.679C1408.13 491.998 1401.68 488.172 1393.27 485.123C1377.79 479.509 1370.37 484.366 1367.95 491.036C1365.1 498.898 1371.62 506.923 1389.11 521.889C1413.83 542.174 1420.52 559.423 1412.74 580.864C1405.05 602.067 1383.48 614.731 1354.36 609.562L1345.55 633.863L1322.2 625.397Z" fill="white"/>
<path d="M1362.44 705.549C1362.44 705.549 1378.34 698.734 1382.6 697.314C1386.86 695.894 1400.49 693.338 1400.49 693.338C1400.49 693.338 1421.65 671.615 1427.04 671.047C1432.44 670.479 1414.69 694.758 1414.69 694.758L1407.31 701.858C1407.31 701.858 1419.23 691.634 1421.5 690.215C1423.78 688.795 1441.66 662.954 1446.21 664.658C1450.75 666.361 1438.54 684.535 1432.58 694.191C1426.62 703.845 1399.35 709.808 1399.35 709.808L1362.44 705.549Z" fill="#F7A491"/>
<path d="M1552.49 775.703C1552.46 779.962 1455.89 781.136 1435.87 866.769L1423 862.539C1451.68 775.489 1547.3 778.995 1551.98 775.792C1552.04 775.745 1552.07 775.696 1552.06 775.703H1552.49Z" fill="#FFBF66"/>
<path d="M1958.84 1326.6L1962.16 1315.18C1979.72 1311.86 1994.83 1299.91 1999.81 1282.78C2001.41 1277.3 2002.5 1272.67 2003.32 1266.47L1979.79 1259.63L1983.98 1245.24L2005.22 1251.41C2006.07 1244.23 2007.28 1234.93 2009.87 1226.02C2017.71 1199.07 2041.31 1186.86 2066.66 1194.23C2073.9 1196.33 2079.48 1199.06 2083.63 1201.85C2087.39 1204.39 2088.38 1209.51 2085.9 1213.32C2083.41 1217.14 2078.34 1218.23 2074.45 1215.84C2071.22 1213.86 2067.11 1211.95 2061.95 1210.45C2044.14 1205.27 2033.25 1215.48 2028.53 1231.69C2025.68 1241.51 2024.93 1249.22 2024.17 1256.92L2057.06 1266.48L2052.87 1280.87L2021.81 1271.84C2019.98 1280.72 2017.91 1289.53 2013.47 1297.16C2008.1 1306.25 2000.23 1312.87 1990.54 1317.24L1990.41 1317.7L2050.43 1335.14C2054.86 1336.43 2057.41 1341.08 2056.13 1345.51L2055.95 1346.11C2054.66 1350.55 2050.02 1353.1 2045.58 1351.81L1958.84 1326.6Z" fill="#FFBF66"/>
</svg>
